<?xml version="1.0" encoding="utf-8"?>
<!-- Generator: Adobe Illustrator 18.1.1, SVG Export Plug-In . SVG Version: 6.00 Build 0)  -->
<svg version="1.1" id="Layer_1" xmlns="http://www.w3.org/2000/svg" xmlns:xlink="http://www.w3.org/1999/xlink" x="0px" y="0px"
	 viewBox="0 0 512 512" enable-background="new 0 0 512 512" xml:space="preserve">
<g opacity="0.46">
	<path fill="#67FFF3" d="M175.9,121c0.2,0.4,0.3,0.9,0.3,1.3c0,2.9-2.6,3-2.6,6.7v14.9c22.9,2.3,43.3,12.6,57.5,29.6l-16.7,21
		c-0.8-0.2-1.9-1-2-2.7c-0.1-1.1,0.2-2.2-0.4-3.4c-0.2-0.3-0.4-0.8-1.6-2.2c-8-9.8-20-17-36.7-19.5v74.6c8.8,2.9,17.6,5.9,25.6,9.4
		c8.2,3.5,38.8,16.6,38.8,52c0,27.8-20.6,58.3-64.4,64V391h-22.7v-23.6c-26.7-1.7-50.6-12.2-67.8-30.9l16.7-23
		c1.9,0.9,1.7,3.1,1.7,3.6c-0.1,1.7-0.3,2.7,1.2,4.3c10.9,11.6,27.9,21.4,48.2,23.7V260c-7.1-2.4-14.3-5.1-21.2-8.3
		c-32.5-15.4-39-37.2-39-51.3c0-27.9,24.5-51.5,60.2-56.1V121H175.9z M150.9,166.3c-24.4,2.8-34.6,17.4-34.6,30.7
		c0,8.4,4,20,21.1,29.9c4,2.3,8.6,4.4,13.6,6.4V166.3z M173.6,344.3c24.8-4.8,39.1-22.3,39.1-39.8c0-8-3-20.8-19.2-29.7
		c-5.3-2.9-12.2-5.3-19.9-7.7V344.3z"/>
	<rect x="307.6" y="121" fill="#67FFF3" width="121.3" height="270"/>
</g>
</svg>
